# xmcd CD database file
#
# Track frame offsets:
#	150
#	18156
#	36873
#	47691
#	64883
#	81022
#	100716
#	116328
#	125880
#	137549
#	158952
#	173151
#	191253
#
# Disc length: 2703 seconds
#
# Revision: 0
# Processed by: cddbd v1.5.1PL2 Copyright (c) Steve Scherf et al.
# Submitted via: CDex 1.51
#
DISCID=a30a8d0d
DTITLE=The Ginn Sisters - Blood Oranges
DYEAR=2006
DGENRE=Country
TTITLE0=Down the Drain
TTITLE1=Broken Spirit
TTITLE2=2 Cool 2 Cry
TTITLE3=Hard Fall
TTITLE4=Let It Burn
TTITLE5=Get It and Go
TTITLE6=Leave Me Standing
TTITLE7=Not My Friend
TTITLE8=I'm Clean
TTITLE9=Time
TTITLE10=It Don't Matter
TTITLE11=Crashboombang
TTITLE12=Dancing Shoes
EXTD=YEAR: 2006
EXTT0=
EXTT1=
EXTT2=
EXTT3=
EXTT4=
EXTT5=
EXTT6=
EXTT7=
EXTT8=
EXTT9=
EXTT10=
EXTT11=
EXTT12=
PLAYORDER=
